<?xml version="1.0" encoding="UTF-8" standalone="no"?>
<svg
   xmlns:dc="http://purl.org/dc/elements/1.1/"
   xmlns:cc="http://creativecommons.org/ns#"
   xmlns:rdf="http://www.w3.org/1999/02/22-rdf-syntax-ns#"
   xmlns:svg="http://www.w3.org/2000/svg"
   xmlns="http://www.w3.org/2000/svg"
   xmlns:sodipodi="http://sodipodi.sourceforge.net/DTD/sodipodi-0.dtd"
   xmlns:inkscape="http://www.inkscape.org/namespaces/inkscape"
   height="48"
   width="48"
   version="1.1"
   id="svg4"
   sodipodi:docname="createemployeeb.svg"
   inkscape:version="0.92.5 (2060ec1f9f, 2020-04-08)">
  <metadata
     id="metadata10">
    <rdf:RDF>
      <cc:Work
         rdf:about="">
        <dc:format>image/svg+xml</dc:format>
        <dc:type
           rdf:resource="http://purl.org/dc/dcmitype/StillImage" />
        <dc:title></dc:title>
      </cc:Work>
    </rdf:RDF>
  </metadata>
  <defs
     id="defs8" />
  <sodipodi:namedview
     pagecolor="#ffffff"
     bordercolor="#666666"
     borderopacity="1"
     objecttolerance="10"
     gridtolerance="10"
     guidetolerance="10"
     inkscape:pageopacity="0"
     inkscape:pageshadow="2"
     inkscape:window-width="777"
     inkscape:window-height="480"
     id="namedview6"
     showgrid="false"
     inkscape:zoom="4.9166667"
     inkscape:cx="24"
     inkscape:cy="24"
     inkscape:window-x="3537"
     inkscape:window-y="296"
     inkscape:window-maximized="0"
     inkscape:current-layer="svg4" />
  <path
     d="M36.5 28v-6.5H30v-3h6.5V12h3v6.5H46v3h-6.5V28ZM18 23.95q-3.3 0-5.4-2.1-2.1-2.1-2.1-5.4 0-3.3 2.1-5.4 2.1-2.1 5.4-2.1 3.3 0 5.4 2.1 2.1 2.1 2.1 5.4 0 3.3-2.1 5.4-2.1 2.1-5.4 2.1ZM2 40v-4.7q0-1.75.9-3.175Q3.8 30.7 5.4 30q3.75-1.65 6.675-2.325Q15 27 18 27t5.925.675Q26.85 28.35 30.55 30q1.6.75 2.525 2.15.925 1.4.925 3.15V40Zm3-3h26v-1.7q0-.8-.4-1.525-.4-.725-1.25-1.075-3.5-1.7-5.975-2.2Q20.9 30 18 30t-5.375.525Q10.15 31.05 6.6 32.7q-.75.35-1.175 1.075Q5 34.5 5 35.3Zm13-16.05q1.95 0 3.225-1.275Q22.5 18.4 22.5 16.45q0-1.95-1.275-3.225Q19.95 11.95 18 11.95q-1.95 0-3.225 1.275Q13.5 14.5 13.5 16.45q0 1.95 1.275 3.225Q16.05 20.95 18 20.95Zm0-4.5ZM18 30Z"
     id="path2"
     style="fill:#ffffff" />
</svg>
